<?xml version="1.0" encoding="UTF-8"?><svg id="Layer_1" xmlns="http://www.w3.org/2000/svg" viewBox="0 0 81 115.91"><defs><style>.cls-1{fill:#c8102e;}.cls-2{fill:#250e62;}.cls-3{fill:#8a1538;}</style></defs><g><path class="cls-2" d="M4.33,98.89v-6.01h1.32v6.01h-1.32Z"/><path class="cls-2" d="M13.43,98.89v-3.92l-1.69,2.57h-.03l-1.67-2.54v3.9h-1.3v-6.01h1.42l1.58,2.54,1.58-2.54h1.42v6.01h-1.31Z"/><path class="cls-2" d="M20.68,99c-1.85,0-3.18-1.38-3.18-3.09v-.02c0-1.71,1.35-3.11,3.2-3.11s3.18,1.38,3.18,3.09v.02c0,1.71-1.35,3.11-3.2,3.11Zm1.82-3.11c0-1.03-.76-1.89-1.82-1.89s-1.8,.84-1.8,1.87v.02c0,1.03,.76,1.89,1.82,1.89s1.8-.84,1.8-1.87v-.02Z"/><path class="cls-2" d="M29.5,98.89h-2.86v-6.01h2.79c1.23,0,1.98,.61,1.98,1.55v.02c0,.68-.36,1.06-.79,1.3,.7,.27,1.12,.67,1.12,1.48v.02c0,1.1-.89,1.65-2.25,1.65Zm.6-4.23c0-.39-.31-.62-.87-.62h-1.3v1.27h1.22c.58,0,.95-.19,.95-.63v-.02Zm.33,2.4c0-.4-.3-.65-.98-.65h-1.53v1.32h1.57c.58,0,.94-.21,.94-.65v-.02Z"/><path class="cls-2" d="M34.48,98.89v-6.01h1.32v6.01h-1.32Z"/><path class="cls-2" d="M38.89,98.89v-6.01h1.32v4.8h2.99v1.2h-4.32Z"/><path class="cls-2" d="M45.85,98.89v-6.01h1.32v6.01h-1.32Z"/><path class="cls-2" d="M54.73,98.89l-.55-1.35h-2.54l-.55,1.35h-1.35l2.57-6.05h1.22l2.57,6.05h-1.38Zm-1.82-4.46l-.8,1.95h1.6l-.8-1.95Zm-.53-2.02l.97-1.52,1.12,.49-1.1,1.03h-1Z"/><path class="cls-2" d="M62.27,98.89l-1.29-1.92h-1.04v1.92h-1.32v-6.01h2.75c1.42,0,2.26,.75,2.26,1.98v.02c0,.97-.52,1.58-1.29,1.86l1.47,2.14h-1.55Zm.03-3.96c0-.57-.4-.86-1.04-.86h-1.31v1.72h1.34c.64,0,1.01-.34,1.01-.85v-.02Z"/><path class="cls-2" d="M66.47,98.89v-6.01h1.32v6.01h-1.32Z"/><path class="cls-2" d="M75.35,98.89l-.55-1.35h-2.54l-.55,1.35h-1.35l2.57-6.05h1.22l2.57,6.05h-1.38Zm-1.82-4.46l-.8,1.95h1.6l-.8-1.95Z"/></g><g><g><polygon class="cls-2" points="4.35 79.03 4.35 54.4 22.92 54.4 22.92 59.22 9.73 59.22 9.73 64.22 21.33 64.22 21.33 69.04 9.73 69.04 9.73 74.21 23.09 74.21 23.09 79.03 4.35 79.03"/><g><path class="cls-2" d="M42.51,62.88c0,2.07-1.51,3.48-4.15,3.48h-5.48v-7.07h5.38c2.64,0,4.26,1.2,4.26,3.52v.07Zm4.39,13.46l-2.09-3.06-2.08-3.04c3.13-1.16,5.27-3.66,5.27-7.63v-.07c0-5.07-3.48-8.13-9.29-8.13h-11.25v22.44c0,1.66,1.34,2.19,3,2.19h2.42v-7.88h4.25l4.37,6.52,.07,.11c.53,.75,1.41,1.25,2.4,1.25h4.77l-1.84-2.69Z"/><path class="cls-2" d="M60.38,68.7l3.25-7.93,3.25,7.93h-6.5Zm5.8-14.3h-4.96l-7.99,18.77-1.75,4.12-.74,1.74h3.46c1.24,0,2.31-.76,2.77-1.83h0l1.49-3.65h10.34l2.23,5.49h5.63l-10.48-24.63Z"/></g></g><rect class="cls-1" x="4.35" y="83.53" width="72.31" height="4.92"/><g><polygon class="cls-1" points="0 52.1 40.5 33.81 40.5 0 0 29.11 0 52.1"/><polygon class="cls-3" points="81 52.1 40.5 33.81 40.5 0 81 29.11 81 52.1"/></g></g><g><path class="cls-2" d="M7.55,113.03h-1.69v2.74h-1.5v-8.52h3.36c1.98,0,3.24,1.12,3.24,2.86,0,1.92-1.53,2.92-3.41,2.92Zm.05-4.42h-1.74v3.07h1.74c1.13,0,1.84-.62,1.84-1.53,0-1.01-.72-1.53-1.84-1.53Z"/><path class="cls-2" d="M16.96,115.91c-2.62,0-4.44-1.98-4.44-4.39s1.85-4.42,4.47-4.42,4.44,1.98,4.44,4.39-1.85,4.42-4.47,4.42Zm0-7.44c-1.69,0-2.87,1.35-2.87,3.02s1.21,3.04,2.9,3.04,2.87-1.35,2.87-3.02-1.2-3.04-2.9-3.04Z"/><path class="cls-2" d="M29.1,115.76l-2.09-2.97h-1.87v2.97h-1.5v-8.52h3.8c1.96,0,3.16,1.03,3.16,2.7,0,1.41-.84,2.26-2.03,2.59l2.3,3.23h-1.77Zm-1.79-7.16h-2.18v2.86h2.19c1.07,0,1.75-.56,1.75-1.44,0-.94-.66-1.42-1.76-1.42Z"/><path class="cls-2" d="M36.41,115.76h-1.51v-7.13h-2.7v-1.39h6.91v1.39h-2.7v7.13Z"/><path class="cls-2" d="M48.25,112.08c0,2.54-1.44,3.82-3.66,3.82s-3.63-1.28-3.63-3.75v-4.9h1.5v4.84c0,1.58,.81,2.43,2.15,2.43s2.14-.8,2.14-2.37v-4.9h1.5v4.83Z"/><path class="cls-2" d="M54.75,115.91c-2.66,0-4.42-1.9-4.42-4.39s1.83-4.42,4.39-4.42c1.48,0,2.4,.41,3.27,1.16l-.95,1.13c-.66-.56-1.3-.91-2.39-.91-1.57,0-2.76,1.36-2.76,3.02,0,1.76,1.16,3.05,2.9,3.05,.8,0,1.53-.26,2.06-.65v-1.59h-2.18v-1.3h3.63v3.58c-.84,.72-2.04,1.33-3.55,1.33Z"/><path class="cls-2" d="M68.81,115.76h-1.58l-.86-2.06h-4.03l-.88,2.06h-1.53l3.75-8.58h1.39l3.75,8.58Zm-4.47-6.79l-1.46,3.41h2.93l-1.47-3.41Z"/><path class="cls-2" d="M70.67,107.24h1.5v7.16h4.48v1.36h-5.98v-8.52Z"/></g></svg>